<svg xmlns="http://www.w3.org/2000/svg" width="100%" height="100%" viewBox="0 0 32 32"><path fill="#2e294e" d="M20.5 31.998V32H3.225A3.226 3.226 0 0 1 0 28.775V3.225A3.226 3.226 0 0 1 3.225 0H19a3.59 3.59 0 0 1 3.26 2.186 3.87 3.87 0 0 1 3.75 3.372 2.602 2.602 0 0 1 2.526 2.973 3.88 3.88 0 0 1 1.93 4.736c.988.843 1.555 2.184 1.533 3.667-.021 1.521-.659 2.895-1.728 3.766a3.86 3.86 0 0 1 .41 1.734 3.89 3.89 0 0 1-2.974 3.761 2.62 2.62 0 0 1-2.619 1.711c-.213 2.282-2.124 4.071-4.402 4.094h-.045zM16.834 1H3.225A2.226 2.226 0 0 0 1 3.225V8h15.202v1H1v19.775C1 30.003 1.997 31 3.225 31h14.593a4.45 4.45 0 0 1-1.614-2.967l-.002-.054.002-25.226c0-.664.237-1.276.63-1.753M19 .996V1h-.184a1.764 1.764 0 0 0-1.619 1.763v13.188a1.628 1.628 0 0 0 2.698-.203.493.493 0 0 1 .857.485 2.6 2.6 0 0 1-1.576 1.232 2.6 2.6 0 0 1-1.981-.241V27.96A3.465 3.465 0 0 0 20.231 31h.269v.022q.074.003.149.003v-.009h.035c1.804-.018 3.314-1.462 3.438-3.287l.005-.079a2.64 2.64 0 0 1-1.014-.881.492.492 0 1 1 .816-.551c.199.296.495.518.833.631l.004.002a1.61 1.61 0 0 0 2.078-1.184 1.63 1.63 0 0 0-.363-1.376.492.492 0 1 1 .744-.646c.362.417.581.936.626 1.483a2.9 2.9 0 0 0 1.851-2.688c0-.419-.091-.829-.265-1.205a4.8 4.8 0 0 1-1.471.431.491.491 0 0 1-.548-.429.49.49 0 0 1 .428-.549 3.8 3.8 0 0 0 1.512-.53l.004-.003c1.019-.658 1.639-1.866 1.659-3.23.018-1.305-.515-2.458-1.425-3.084l-.014-.011a3.76 3.76 0 0 0-1.528-.644 2.13 2.13 0 0 1-1.27 1.287.492.492 0 1 1-.339-.926 1.137 1.137 0 0 0 .406-1.875.492.492 0 1 1 .691-.702 2.13 2.13 0 0 1 .615 1.235c.51.084 1.005.251 1.461.493q.086-.34.086-.696a2.89 2.89 0 0 0-1.9-2.71.49.49 0 0 1-.3-.618q.082-.248.082-.508a1.617 1.617 0 0 0-1.933-1.584l-.006.001a1.61 1.61 0 0 0-1.17.967.492.492 0 1 1-.91-.375 2.6 2.6 0 0 1 1.479-1.439 2.88 2.88 0 0 0-2.551-2.54 3.1 3.1 0 0 1-.325 1.514c.345.358.551.821.586 1.323a.493.493 0 0 1-.458.526l-.034.002a.49.49 0 0 1-.49-.46 1.133 1.133 0 0 0-1.688-.912.493.493 0 0 1-.483-.859 2.13 2.13 0 0 1 1.731-.155c.185-.418.23-.892.12-1.339v-.003A2.61 2.61 0 0 0 19 .996m-.208 20.383.003.003a.493.493 0 0 1 .894-.414c.31.672.865 1.182 1.56 1.437a2.772 2.772 0 0 0 3.089-.83.493.493 0 0 1 .757.63 3.76 3.76 0 0 1-2.889 1.356h-.017l-.009.234a3.33 3.33 0 0 1-1.932 2.887.493.493 0 0 1-.414-.895 2.34 2.34 0 0 0 1.36-2.034l.014-.328a3.735 3.735 0 0 1-2.416-2.046m5.292-4.225-.247.172a2.22 2.22 0 0 0-.906 1.38.49.49 0 0 1-.581.385.49.49 0 0 1-.385-.581 3.2 3.2 0 0 1 1.307-1.991l.169-.118a3.62 3.62 0 0 1-.397-3.043.49.49 0 0 1 .618-.32.49.49 0 0 1 .32.618 2.638 2.638 0 0 0 2.868 3.41.494.494 0 0 1 .554.422.494.494 0 0 1-.422.554 3.622 3.622 0 0 1-2.898-.888m-.268-6.352za.494.494 0 0 1-.645.265 2 2 0 0 0-1.539-.004 2 2 0 0 0-1.091 1.087 2 2 0 0 0-.154.869.49.49 0 0 1-.468.516h-.024a.49.49 0 0 1-.491-.469 3 3 0 0 1 .897-2.285l-.046-.055a2.66 2.66 0 0 1-.423-2.75.492.492 0 1 1 .909.379 1.68 1.68 0 0 0 .267 1.735l.105.126a3 3 0 0 1 2.439-.059.493.493 0 0 1 .265.644M8.5 3a1.5 1.5 0 1 1-.001 3.001A1.5 1.5 0 0 1 8.5 3m4 0a1.5 1.5 0 1 1-.001 3.001A1.5 1.5 0 0 1 12.5 3m-8 0a1.5 1.5 0 1 1-.001 3.001A1.5 1.5 0 0 1 4.5 3" class="c"/></svg>
