<svg xmlns="http://www.w3.org/2000/svg" xml:space="preserve" style="fill-rule:evenodd;clip-rule:evenodd;stroke-linejoin:round;stroke-miterlimit:1.5" viewBox="0 0 64 64"><path d="M51.365 38H59.4a.6.6 0 0 1 .6.6v4.8a.6.6 0 0 1-.6.6H48.6a.6.6 0 0 1-.6-.6v-2.443l5.163 1.384z" style="fill:#fff;fill-opacity:.2" transform="translate(1 1)"/><path d="M969.671 616.408c.891 3.656.526-36.469-.365-32.813h-219.52a81.7 81.7 0 0 0-9.14-24.141l-33.047-57.234c-14.438-24.984-41.344-40.547-70.219-40.547h-21.797v-21.891h292.92c30.188 0 54.75-24.609 54.75-54.797v-27.891a67 67 0 0 0 10.875-3.516c36.282-15.047 53.582-56.766 38.532-93.047-7.27-17.578-20.954-31.266-38.532-38.531s-36.938-7.265-54.516 0c-36.281 15.047-53.578 56.766-38.531 93.047 9.094 21.938 27.938 36.891 49.453 42v27.938c0 12.141-9.891 22.031-21.984 22.031H615.63v-132.19h64.781c.89 3.657 2.015 7.313 3.515 10.828 7.266 17.578 20.953 31.266 38.531 38.531a70.5 70.5 0 0 0 27.188 5.438c27.984 0 54.562-16.594 65.906-43.969 15.047-36.281-2.25-78.047-38.531-93.047-17.578-7.266-36.938-7.266-54.516 0s-31.266 20.953-38.531 38.531c-1.5 3.562-2.625 7.219-3.515 10.922h-64.734v-82.594c0-50.062-40.406-91.125-90.094-91.547h-.985c-48.703 0-91.594 28.734-110.3 72.703-64.078 1.359-116.77 49.875-124.69 112.12-46.969.844-84.891 39.281-84.891 86.438 0 4.172.282 8.297.891 12.422-43.219 21.516-71.344 66.094-71.344 115.12 0 14.625 2.391 28.828 7.172 42.375-32.859 28.031-51.703 72.609-51 121.92.703 50.578 21.938 96.281 57.469 125.26-8.953 17.812-13.641 37.5-13.641 57.656 0 59.531 41.859 111.52 98.906 125.06 12.234 33.656 44.812 57.094 81.328 57.094a79 79 0 0 0 5.766-.188c7.078 75.891 70.641 135.371 146.39 136.131h1.5c75.844 0 139.13-56.48 147.52-131.9.046-.61.093-1.219.093-1.829v-40.359h64.781c.891 3.656 2.016 7.266 3.516 10.828 11.344 27.422 37.922 43.97 65.906 43.97a70.8 70.8 0 0 0 27.188-5.44c36.281-15.045 53.578-56.764 38.531-93.045-7.266-17.578-20.953-31.266-38.531-38.531s-36.938-7.266-54.516 0c-17.578 7.265-31.266 20.953-38.531 38.531-1.5 3.562-2.625 7.219-3.516 10.922h-64.781v-132.19h292.92c12.141 0 21.984 9.89 21.984 22.031v27.891c-21.516 5.109-40.359 20.109-49.406 42-15.047 36.281 2.25 78.047 38.531 93.047a70.9 70.9 0 0 0 27.281 5.484c9.234 0 18.469-1.828 27.281-5.484 17.578-7.266 31.268-20.953 38.528-38.531 15.05-36.281-2.25-78.047-38.528-93.047-3.562-1.5-7.219-2.625-10.875-3.516v-27.844c0-30.234-24.562-54.797-54.75-54.797h-292.92V738.33h21.797c28.875 0 55.781-15.516 70.219-40.547l33.047-57.234a79.2 79.2 0 0 0 9.141-24.141zM911.27 302.53c-8.109-19.594 1.219-42.141 20.812-50.25 9.516-3.937 19.969-3.937 29.438 0 9.469 3.938 16.875 11.344 20.812 20.812 8.109 19.594-1.219 42.141-20.812 50.25s-42.141-1.219-50.25-20.812m-176.39-79.641c9.469-3.937 19.922-3.937 29.438 0 9.469 3.938 16.875 11.344 20.812 20.812s3.938 19.969 0 29.438c-3.937 9.469-11.344 16.875-20.812 20.812s-19.969 3.938-29.438 0c-9.469-3.937-16.875-11.344-20.812-20.812a38.1 38.1 0 0 1-2.953-14.672v-.047c0-4.969.984-9.984 2.953-14.719 3.938-9.469 11.344-16.875 20.812-20.812m.047 683.16a38.4 38.4 0 0 1 14.719-2.953c4.969 0 9.984.984 14.719 2.953 9.469 3.938 16.875 11.344 20.812 20.812 8.109 19.594-1.219 42.141-20.812 50.25s-42.141-1.219-50.25-20.812a39.3 39.3 0 0 1-2.953-14.531v-.328c0-4.922.984-9.844 2.953-14.578 3.937-9.469 11.344-16.875 20.812-20.812zm247.45 20.859c-3.938 9.469-11.344 16.875-20.812 20.812-9.516 3.938-19.969 3.938-29.438 0-19.594-8.109-28.922-30.656-20.812-50.25 6.14-14.812 20.484-23.766 35.578-23.766 4.875 0 9.89.938 14.672 2.906 19.594 8.11 28.922 30.656 20.812 50.25zm-514.45 172.402h-1.172c-60-.61-110.2-48.61-114.33-109.312-.047-.891-.094-1.781-.141-2.625 13.5-6.656 25.219-16.781 33.703-29.297 5.063-7.5 3.094-17.672-4.406-22.734s-17.672-3.094-22.734 4.406c-6.609 9.844-16.453 17.25-27.703 21-.047 0-.094 0-.14.047a53 53 0 0 1-16.688 2.672c-24.984 0-47.016-17.672-52.406-42.047-.704-3.469-1.032-7.031-1.032-10.641 0-12.891 4.641-25.406 13.125-35.109 5.953-6.844 5.203-17.156-1.64-23.109-6.844-5.953-17.156-5.203-23.109 1.641-12.047 13.875-19.312 31.125-20.812 49.312-36.188-13.969-61.547-49.359-61.547-89.391 0-13.922 3-27.562 8.812-40.078a159.5 159.5 0 0 0 48.891 14.344c.703.093 1.36.14 2.016.14 8.156 0 15.234-6.094 16.219-14.391 1.125-9-5.25-17.156-14.25-18.281-17.719-2.203-35.062-8.297-50.25-17.625-.047-.047-.094-.047-.141-.094-33.891-21.891-54.516-62.062-55.172-107.39-.609-43.406 17.109-81.75 47.391-102.56.188-.14.328-.281.469-.375 15.094-10.828 32.531-18.141 50.812-21.422 6.797 19.172 21.703 35.25 42.234 42.797q2.813.985 5.625.985a16.36 16.36 0 0 0 15.375-10.781c3.094-8.485-1.266-17.906-9.75-21-19.547-7.125-29.625-28.875-22.453-48.422 1.922-5.203 5.016-10.031 8.953-13.922 6.469-6.328 6.563-16.734.188-23.156-6.329-6.469-16.734-6.563-23.156-.188-7.407 7.313-13.219 16.312-16.781 26.062-1.829 4.922-3 9.985-3.657 15-16.969 2.813-33.422 8.344-48.609 16.406a95.5 95.5 0 0 1-2.859-23.156c0-40.219 25.406-76.406 63.188-90.094 8.344-3 12.797-12.141 9.984-20.578-1.828-5.437-2.718-11.156-2.718-16.875 0-29.625 24.094-53.719 53.719-53.719 3.609 0 7.171.328 10.547 1.032.046 0 .14 0 .187.046 17.531 3.563 32.062 15.562 38.906 32.156a16.38 16.38 0 0 0 15.141 10.125c2.063 0 4.219-.421 6.234-1.218 8.344-3.469 12.328-13.031 8.907-21.375a86.3 86.3 0 0 0-49.172-47.859c4.968-44.391 40.359-79.688 84.797-84.469-.703 17.344 3 34.781 10.828 50.344-11.484 11.906-18.328 27.328-19.5 44.016-.61 9.047 6.187 16.828 15.234 17.484.375.046.75.046 1.125.046 8.531 0 15.75-6.609 16.312-15.281.703-10.031 5.25-19.219 12.844-25.875 7.593-6.609 17.344-9.89 27.375-9.187 5.531.375 11.016 2.016 15.891 4.734 7.875 4.453 17.859 1.641 22.312-6.234s1.64-17.859-6.235-22.312a70.8 70.8 0 0 0-29.719-8.859c-9.609-.657-19.031.609-27.844 3.703-6.14-13.922-7.64-29.672-3.984-44.531v-.094c11.438-36.562 44.859-61.125 83.203-61.125h.75c31.781.281 57.609 26.625 57.609 58.781v438.56c-4.36 5.531-9.797 10.266-15.984 13.734-25.969 14.672-59.062 5.531-73.734-20.484-4.453-7.875-14.438-10.641-22.312-6.188s-10.641 14.438-6.188 22.312c11.438 20.203 30.047 34.734 52.406 40.969a86.8 86.8 0 0 0 23.391 3.188c14.719 0 29.297-3.797 42.469-11.203v357c-6.937 58.364-56.016 101.914-114.84 101.914zm211.22-417.892c-8.578 14.906-24.609 24.141-41.812 24.141h-21.797v-211.13h21.797c17.203 0 33.234 9.234 41.812 24.141l33.047 57.281c4.312 7.406 6.422 15.75 6.469 24.047v.187c0 8.297-2.157 16.641-6.469 24.047zm-325.4-43.125c-21.562 19.219-49.828 30.703-80.109 30.703q-8.086 0-16.312-1.125c-8.953-1.219-15.234-9.469-14.016-18.422s9.469-15.234 18.422-14.016c47.859 6.516 92.109-27.141 98.625-75 1.781-12.797.609-26.062-3.281-38.391-2.766-8.625 2.015-17.859 10.641-20.578s17.859 2.016 20.578 10.641c5.39 16.922 6.984 35.156 4.547 52.781-2.438 17.812-8.672 34.172-17.766 48.422l5.625 3.938c22.5 15.75 37.969 39.28 43.453 66.188 1.828 8.859-3.891 17.53-12.797 19.312a16 16 0 0 1-3.282.328 16.37 16.37 0 0 1-16.031-13.125c-3.797-18.656-14.531-34.969-30.141-45.891l-8.203-5.719zm8.859-211.18c-3.469-8.344.469-17.953 8.813-21.422 27.094-11.297 56.438-9.703 81.094 1.969l3.515-4.172c13.594-16.125 16.969-38.25 8.86-57.703-3.469-8.344.469-17.953 8.812-21.422s17.953.469 21.422 8.812c12.891 30.844 7.5 65.859-14.062 91.453l-1.547 1.828c9.282 9.047 16.922 20.109 22.266 32.812 5.672 13.548 8.297 28.5 7.594 43.172-.422 8.766-7.687 15.609-16.359 15.609h-.797c-9.047-.421-16.031-8.109-15.562-17.156.469-9.843-1.265-19.875-5.109-28.922-6.891-16.5-19.781-29.344-36.281-36.141s-34.688-6.75-51.188.141c-8.344 3.469-17.953-.469-21.422-8.812zm167.06 351.74c-14.016 30.281-39 53.344-70.359 64.828-3.281 1.219-6.609 2.25-9.984 3.188l.469 10.922c1.218 29.344 18.562 55.266 45.234 67.641 8.203 3.796 11.766 13.547 7.968 21.75-2.765 6-8.671 9.515-14.859 9.515a16.5 16.5 0 0 1-6.89-1.5c-37.875-17.531-62.438-54.328-64.219-96l-.328-7.781h-.563c-17.906 0-35.719-3.891-52.453-11.625-16.734-7.735-31.828-19.312-43.594-33.469-5.765-6.938-4.828-17.297 2.11-23.062 6.937-5.766 17.297-4.828 23.062 2.109 8.672 10.453 19.781 18.984 32.156 24.703 22.359 10.359 47.438 11.391 70.547 2.906s41.578-25.452 51.891-47.812c3.797-8.203 13.547-11.765 21.75-7.968s11.766 13.547 7.968 21.75z" style="fill:#ff76d8;fill-rule:nonzero" transform="translate(-2.72 13.957)scale(.03007)"/><path d="M64 19.225v25.55A3.226 3.226 0 0 1 60.775 48h-25.55A3.226 3.226 0 0 1 32 44.775v-25.55A3.226 3.226 0 0 1 35.225 16h25.55A3.226 3.226 0 0 1 64 19.225m-1 0A2.226 2.226 0 0 0 60.775 17h-25.55A2.226 2.226 0 0 0 33 19.225v25.55c0 1.228.997 2.225 2.225 2.225h25.55A2.226 2.226 0 0 0 63 44.775z" style="fill:#fff"/><g transform="translate(8)"><circle cx="36.5" cy="20.5" r="1.5" style="fill:#fff"/><path d="M36.5 19a1.5 1.5 0 1 1-.001 3.001A1.5 1.5 0 0 1 36.5 19m0 1a.5.5 0 1 0 0 1 .5.5 0 0 0 0-1" style="fill:#fff"/></g><path d="M32 24h32" style="fill:none;stroke:#fff;stroke-width:1px" transform="translate(0 .5)"/><circle cx="36.5" cy="20.5" r="1.5" style="fill:#fff"/><path d="M36.5 19a1.5 1.5 0 1 1-.001 3.001A1.5 1.5 0 0 1 36.5 19m0 1a.5.5 0 1 0 0 1 .5.5 0 0 0 0-1" style="fill:#fff"/><g transform="translate(4)"><circle cx="36.5" cy="20.5" r="1.5" style="fill:#fff"/><path d="M36.5 19a1.5 1.5 0 1 1-.001 3.001A1.5 1.5 0 0 1 36.5 19m0 1a.5.5 0 1 0 0 1 .5.5 0 0 0 0-1" style="fill:#fff"/></g><path d="m4 0 16 12.279-6.951 1.17 4.325 8.817L13.778 24l-4.35-8.879L4 19.823z" style="fill:#ff76d8;fill-rule:nonzero" transform="rotate(105 9.337 42.334)scale(-.5 .5)"/><path d="M26 32h12" style="fill:none;stroke:#ff76d8;stroke-width:.86px" transform="translate(-4.333 -5.333)scale(1.16667)"/><path d="M36 30.5v1s3.501.111 5 .9c1 .526 3.516 2.741 5.288 4.932.894.231 2.454-1.372 2.088-2.219-1.717-1.018-3.541-3.166-4.976-3.998-2.279-1.321-7.4-.615-7.4-.615" style="fill:#ff76d8" transform="translate(0 1)"/></svg>