<svg xmlns="http://www.w3.org/2000/svg" xml:space="preserve" style="fill-rule:evenodd;clip-rule:evenodd;stroke-linejoin:round;stroke-miterlimit:1.5" viewBox="0 0 64 64"><path d="M54 44h-5.4a.6.6 0 0 1-.6-.6v-4.8a.6.6 0 0 1 .6-.6h10.8a.6.6 0 0 1 .6.6v4.8a.6.6 0 0 1-.6.6h-.188L54 40z" style="fill:#dc44b5" transform="translate(-43 -9)"/><path d="M64 44v.775A3.226 3.226 0 0 1 60.775 48h-25.55A3.226 3.226 0 0 1 32 44.775v-25.55A3.226 3.226 0 0 1 35.225 16h25.55A3.226 3.226 0 0 1 64 19.225V30h-1V19.225A2.226 2.226 0 0 0 60.775 17h-25.55A2.226 2.226 0 0 0 33 19.225v25.55c0 1.228.997 2.225 2.225 2.225h25.55A2.226 2.226 0 0 0 63 44.775V44zm-1-4v-6h1v6z" style="fill:#dc44b5" transform="translate(-32)"/><circle cx="36.5" cy="20.5" r="1.5" style="fill:#dc44b5" transform="translate(-24)"/><path d="M32 24h32" style="fill:none;stroke:#dc44b5;stroke-width:1px" transform="translate(-32 .5)"/><circle cx="36.5" cy="20.5" r="1.5" style="fill:#dc44b5" transform="translate(-32)"/><circle cx="36.5" cy="20.5" r="1.5" style="fill:#dc44b5" transform="translate(-28)"/><path d="M29 32H14" style="fill:none;stroke:#dc44b5;stroke-width:1px;stroke-linecap:round"/><path d="M28.02 32H39" style="fill:none;stroke:url(#a);stroke-width:1px;stroke-linecap:round"/><path d="M37.56 32.494c-.026.11-.015-1.097.011-.987h6.602c.052-.252.144-.497.275-.726l.993-1.72a2.45 2.45 0 0 1 2.112-1.22h.656v-.658h-8.81a1.65 1.65 0 0 1-1.646-1.648v-.839a2.143 2.143 0 0 1-.327-4.063 2.144 2.144 0 0 1 2.798 2.798 2.14 2.14 0 0 1-1.487 1.264v.84c0 .365.298.662.661.662h8.81v-3.975h-1.949q-.039.166-.106.326c-.218.528-.63.94-1.158 1.158a2.146 2.146 0 0 1-2.8-1.159 2.143 2.143 0 0 1 2.798-2.797 2.12 2.12 0 0 1 1.265 1.487h1.946v-2.484c0-1.505 1.215-2.74 2.71-2.753h.03c1.464 0 2.754.864 3.316 2.186a3.87 3.87 0 0 1 3.75 3.372 2.603 2.603 0 0 1 2.526 2.973 3.88 3.88 0 0 1 2.145 3.462q0 .662-.215 1.274c.988.843 1.555 2.184 1.533 3.667-.02 1.52-.66 2.895-1.728 3.766.27.536.41 1.128.41 1.734a3.89 3.89 0 0 1-2.974 3.761 2.62 2.62 0 0 1-2.619 1.711c-.213 2.282-2.124 4.071-4.402 4.094h-.045a4.45 4.45 0 0 1-4.437-3.966l-.002-.055v-1.214h-1.949a2.144 2.144 0 0 1-2.905 1.484 2.143 2.143 0 0 1 0-3.957 2.13 2.13 0 0 1 1.64 0 2.12 2.12 0 0 1 1.264 1.488H48.2v-3.976h-8.809a.66.66 0 0 0-.66.663v.839l-.987-.002v-.837c0-.91.738-1.648 1.646-1.648H48.2v-.658h-.656a2.44 2.44 0 0 1-2.111-1.22l-.994-1.72a2.4 2.4 0 0 1-.275-.727zm7.061-11.834a1.154 1.154 0 0 0-1.511 1.511 1.154 1.154 0 0 0 1.511.626 1.154 1.154 0 0 0 .626-1.51 1.15 1.15 0 0 0-.626-.627m8.028 26.356h.035c1.804-.018 3.314-1.462 3.438-3.287l.004-.08a2.64 2.64 0 0 1-1.013-.88.492.492 0 1 1 .816-.551c.199.296.495.518.833.631l.004.002q.244.08.502.08c.752 0 1.414-.531 1.576-1.264q.031-.158.031-.32c0-.388-.14-.764-.394-1.056a.492.492 0 1 1 .744-.646c.362.417.58.936.626 1.483a2.9 2.9 0 0 0 1.85-2.688c0-.419-.09-.829-.264-1.205a4.8 4.8 0 0 1-1.47.431.492.492 0 0 1-.548-.429.49.49 0 0 1 .427-.55 3.8 3.8 0 0 0 1.512-.53l.004-.002c1.019-.658 1.64-1.866 1.659-3.23.018-1.305-.515-2.458-1.425-3.084l-.014-.011a3.8 3.8 0 0 0-1.528-.644 2.12 2.12 0 0 1-1.27 1.287.492.492 0 1 1-.338-.926 1.135 1.135 0 0 0 .405-1.875.49.49 0 0 1-.005-.697.49.49 0 0 1 .696-.005 2.14 2.14 0 0 1 .615 1.235 4.8 4.8 0 0 1 1.461.493q.086-.34.086-.696a2.89 2.89 0 0 0-1.9-2.71.49.49 0 0 1-.3-.618q.082-.248.082-.508a1.617 1.617 0 0 0-1.933-1.584l-.006.001a1.61 1.61 0 0 0-1.17.967.493.493 0 0 1-.91-.375 2.6 2.6 0 0 1 1.478-1.44 2.88 2.88 0 0 0-2.55-2.54 3.1 3.1 0 0 1-.325 1.515c.345.358.551.821.586 1.323a.493.493 0 0 1-.458.526l-.034.001a.49.49 0 0 1-.49-.46 1.133 1.133 0 0 0-1.688-.911.493.493 0 1 1-.483-.859 2.13 2.13 0 0 1 1.731-.155c.185-.418.23-.892.12-1.339v-.003a2.61 2.61 0 0 0-2.502-1.838h-.023c-.956.009-1.732.801-1.732 1.768v13.188a1.628 1.628 0 0 0 2.698-.203.492.492 0 1 1 .857.485 2.6 2.6 0 0 1-2.28 1.328c-.442 0-.88-.114-1.277-.337V43.96a3.466 3.466 0 0 0 3.454 3.065zm3.167-20.214-.001.001a.493.493 0 0 1-.645.265 2 2 0 0 0-1.539-.004c-.496.204-.884.59-1.091 1.087a2 2 0 0 0-.154.87.49.49 0 0 1-.468.515h-.024a.494.494 0 0 1-.492-.47 2.997 2.997 0 0 1 .898-2.285l-.046-.054a2.66 2.66 0 0 1-.423-2.75.493.493 0 0 1 .91.379 1.68 1.68 0 0 0 .266 1.735l.105.126a3 3 0 0 1 2.44-.06c.25.105.368.394.264.645m-5.024 10.577.003.003a.493.493 0 0 1 .894-.414 2.75 2.75 0 0 0 1.56 1.437 2.776 2.776 0 0 0 3.088-.83.493.493 0 0 1 .758.63 3.78 3.78 0 0 1-2.889 1.356h-.017l-.01.234a3.32 3.32 0 0 1-1.93 2.887.496.496 0 0 1-.655-.24.493.493 0 0 1 .24-.655 2.34 2.34 0 0 0 1.36-2.034l.014-.328a3.732 3.732 0 0 1-2.416-2.045m5.292-4.225-.247.172a2.22 2.22 0 0 0-.906 1.38.492.492 0 1 1-.966-.196c.165-.81.63-1.517 1.307-1.99l.17-.119a3.6 3.6 0 0 1-.398-3.043.493.493 0 0 1 .938.298 2.638 2.638 0 0 0 2.867 3.41.492.492 0 0 1 .133.976 3.62 3.62 0 0 1-2.898-.888M39.317 23.055a1.158 1.158 0 0 0-1.512-1.51 1.158 1.158 0 0 0 0 2.137 1.16 1.16 0 0 0 1.512-.627m6.98 11.394c.258.448.74.726 1.257.726h.656v-6.349h-.656c-.517 0-.999.278-1.257.726l-.994 1.723c-.13.222-.193.473-.194.723v.005c0 .25.065.5.194.723zm-1.677 6.755a1.154 1.154 0 0 0-1.512.626c-.243.59.037 1.267.626 1.511a1.158 1.158 0 0 0 1.6-1.063v-.01q0-.222-.089-.438a1.15 1.15 0 0 0-.625-.626"/><path d="M28.02 42.45v-.985h9.062a.66.66 0 0 0 .661-.663V39h.987v1.802c0 .91-.739 1.648-1.646 1.648z"/><path d="m28.252 41.451.001.985a2.144 2.144 0 0 1-2.905 1.484 2.143 2.143 0 0 1 0-3.956 2.13 2.13 0 0 1 1.64 0 2.12 2.12 0 0 1 1.264 1.487m-1.632-.575a1.154 1.154 0 0 0-1.512.626c-.243.589.037 1.267.626 1.51a1.158 1.158 0 0 0 1.6-1.062v-.01q0-.224-.089-.438a1.15 1.15 0 0 0-.625-.626"/><path d="m4 0 16 12.279-6.951 1.17 4.325 8.817L13.778 24l-4.35-8.879L4 19.823z" style="fill:#dc44b5;fill-rule:nonzero" transform="translate(10.271 33)scale(.4322)"/><defs><linearGradient id="a" x1="0" x2="1" y1="0" y2="0" gradientTransform="matrix(10.9801 0 0 0 28.02 32)" gradientUnits="userSpaceOnUse"><stop offset="0" style="stop-color:#dc44b5;stop-opacity:1"/><stop offset="1" style="stop-color:black;stop-opacity:1"/></linearGradient></defs></svg>