<svg xmlns="http://www.w3.org/2000/svg" xml:space="preserve" style="fill-rule:evenodd;clip-rule:evenodd;stroke-linejoin:round;stroke-miterlimit:1.5" viewBox="0 0 64 64"><path d="M54 44h-5.4a.6.6 0 0 1-.6-.6v-4.8a.6.6 0 0 1 .6-.6h10.8a.6.6 0 0 1 .6.6v4.8a.6.6 0 0 1-.6.6h-.188L54 40z" style="fill:#ff76d8" transform="translate(-43 -9)"/><path d="M64 44v.775A3.226 3.226 0 0 1 60.775 48h-25.55A3.226 3.226 0 0 1 32 44.775v-25.55A3.226 3.226 0 0 1 35.225 16h25.55A3.226 3.226 0 0 1 64 19.225V30h-1V19.225A2.226 2.226 0 0 0 60.775 17h-25.55A2.226 2.226 0 0 0 33 19.225v25.55c0 1.228.997 2.225 2.225 2.225h25.55A2.226 2.226 0 0 0 63 44.775V44zm-1-4v-6h1v6z" style="fill:#ff76d8" transform="translate(-32)"/><circle cx="36.5" cy="20.5" r="1.5" style="fill:#ff76d8" transform="translate(-24)"/><path d="M32 24h32" style="fill:none;stroke:#ff76d8;stroke-width:1px" transform="translate(-32 .5)"/><circle cx="36.5" cy="20.5" r="1.5" style="fill:#ff76d8" transform="translate(-32)"/><circle cx="36.5" cy="20.5" r="1.5" style="fill:#ff76d8" transform="translate(-28)"/><path d="M29 32H14" style="fill:none;stroke:#ff76d8;stroke-width:1px;stroke-linecap:round"/><path d="M28.02 32H39" style="fill:none;stroke:url(#a);stroke-width:1px;stroke-linecap:round"/><path d="M969.671 616.408c.891 3.656.526-36.469-.365-32.813h-219.52a81.7 81.7 0 0 0-9.14-24.141l-33.047-57.234c-14.438-24.984-41.344-40.547-70.219-40.547h-21.797v-21.891h292.92c30.188 0 54.75-24.609 54.75-54.797v-27.891a67 67 0 0 0 10.875-3.516c36.282-15.047 53.582-56.766 38.532-93.047-7.27-17.578-20.954-31.266-38.532-38.531s-36.938-7.265-54.516 0c-36.281 15.047-53.578 56.766-38.531 93.047 9.094 21.938 27.938 36.891 49.453 42v27.938c0 12.141-9.891 22.031-21.984 22.031H615.63v-132.19h64.781c.89 3.657 2.015 7.313 3.515 10.828 7.266 17.578 20.953 31.266 38.531 38.531a70.5 70.5 0 0 0 27.188 5.438c27.984 0 54.562-16.594 65.906-43.969 15.047-36.281-2.25-78.047-38.531-93.047-17.578-7.266-36.938-7.266-54.516 0-17.578 7.265-31.266 20.953-38.531 38.531-1.5 3.562-2.625 7.219-3.515 10.922h-64.734v-82.594c0-50.062-40.406-91.125-90.094-91.547h-.985c-48.703 0-91.594 28.734-110.3 72.703-64.078 1.359-116.77 49.875-124.69 112.12-46.969.844-84.891 39.281-84.891 86.438 0 4.172.282 8.297.891 12.422-43.219 21.516-71.344 66.094-71.344 115.12 0 14.625 2.391 28.828 7.172 42.375-32.859 28.031-51.703 72.609-51 121.92.703 50.578 21.938 96.281 57.469 125.26-8.953 17.812-13.641 37.5-13.641 57.656 0 59.531 41.859 111.52 98.906 125.06 12.234 33.656 44.812 57.094 81.328 57.094a79 79 0 0 0 5.766-.188c7.078 75.891 70.641 135.371 146.39 136.131h1.5c75.844 0 139.13-56.48 147.52-131.9l.093-1.829v-40.359h64.781c.891 3.656 2.016 7.266 3.516 10.828 11.344 27.422 37.922 43.97 65.906 43.97a70.8 70.8 0 0 0 27.188-5.44c36.281-15.045 53.578-56.764 38.531-93.045-7.266-17.578-20.953-31.266-38.531-38.531s-36.938-7.266-54.516 0c-17.578 7.265-31.266 20.953-38.531 38.531-1.5 3.562-2.625 7.219-3.516 10.922h-64.781v-132.19h292.92c12.141 0 21.984 9.89 21.984 22.031v27.891l32.812-.047v-27.844c0-30.234-24.562-54.797-54.75-54.797h-292.92V738.33h21.797c28.875 0 55.781-15.516 70.219-40.547l33.047-57.234a79.2 79.2 0 0 0 9.141-24.141zM734.88 222.889c9.469-3.937 19.922-3.938 29.438 0 9.469 3.938 16.875 11.344 20.812 20.812s3.938 19.969 0 29.438c-3.937 9.469-11.344 16.875-20.812 20.812s-19.969 3.938-29.438 0-16.875-11.344-20.812-20.812a38.3 38.3 0 0 1-2.953-14.695c0-4.969.984-10.008 2.953-14.743 3.938-9.469 11.344-16.875 20.812-20.812M467.927 1099.31h-1.172c-60-.61-110.2-48.61-114.33-109.312l-.141-2.625c13.5-6.656 25.219-16.781 33.703-29.297 5.063-7.5 3.094-17.672-4.406-22.734s-17.672-3.094-22.734 4.406c-6.609 9.844-16.453 17.25-27.703 21l-.14.047a53 53 0 0 1-16.688 2.672c-24.984 0-47.016-17.672-52.406-42.047-.704-3.469-1.032-7.031-1.032-10.641 0-12.891 4.641-25.406 13.125-35.109 5.953-6.844 5.203-17.156-1.64-23.109-6.844-5.953-17.156-5.203-23.109 1.641-12.047 13.875-19.312 31.125-20.812 49.312-36.188-13.969-61.547-49.359-61.547-89.391 0-13.922 3-27.562 8.812-40.078a159.5 159.5 0 0 0 48.891 14.344c.703.093 1.36.14 2.016.14 8.156 0 15.234-6.094 16.219-14.391 1.125-9-5.25-17.156-14.25-18.281-17.719-2.203-35.062-8.297-50.25-17.625l-.141-.094c-33.891-21.891-54.516-62.062-55.172-107.39-.609-43.406 17.109-81.75 47.391-102.56l.469-.375c15.094-10.828 32.531-18.141 50.812-21.422 6.797 19.172 21.703 35.25 42.234 42.797q2.813.985 5.625.985a16.36 16.36 0 0 0 15.375-10.781c3.094-8.485-1.266-17.906-9.75-21-19.547-7.125-29.625-28.875-22.453-48.422 1.922-5.203 5.016-10.031 8.953-13.922 6.469-6.328 6.563-16.734.188-23.156-6.329-6.469-16.734-6.563-23.156-.188-7.407 7.313-13.219 16.312-16.781 26.062-1.829 4.922-3 9.985-3.657 15-16.969 2.813-33.422 8.344-48.609 16.406a95.5 95.5 0 0 1-2.859-23.156c0-40.219 25.406-76.406 63.188-90.094 8.344-3 12.797-12.141 9.984-20.578-1.828-5.437-2.718-11.156-2.718-16.875 0-29.625 24.094-53.719 53.719-53.719 3.609 0 7.171.328 10.547 1.032.046 0 .14 0 .187.046 17.531 3.563 32.062 15.562 38.906 32.156a16.38 16.38 0 0 0 15.141 10.125c2.063 0 4.219-.421 6.234-1.218 8.344-3.469 12.328-13.031 8.907-21.375a86.3 86.3 0 0 0-49.172-47.859c4.968-44.391 40.359-79.688 84.797-84.469-.703 17.344 3 34.781 10.828 50.344-11.484 11.906-18.328 27.328-19.5 44.016-.61 9.047 6.187 16.828 15.234 17.484l1.125.046c8.531 0 15.75-6.609 16.312-15.281.703-10.031 5.25-19.219 12.844-25.875 7.593-6.609 17.344-9.89 27.375-9.187 5.531.375 11.016 2.016 15.891 4.734 7.875 4.453 17.859 1.641 22.312-6.234s1.64-17.859-6.235-22.312a70.8 70.8 0 0 0-29.719-8.859c-9.609-.657-19.031.609-27.844 3.703-6.14-13.922-7.64-29.672-3.984-44.531v-.094c11.438-36.562 44.859-61.125 83.203-61.125h.75c31.781.281 57.609 26.625 57.609 58.781v438.56c-4.36 5.531-9.797 10.266-15.984 13.734-25.969 14.672-59.062 5.531-73.734-20.484-4.453-7.875-14.438-10.641-22.312-6.188s-10.641 14.438-6.188 22.312c11.438 20.203 30.047 34.734 52.406 40.969a86.8 86.8 0 0 0 23.391 3.188c14.719 0 29.297-3.797 42.469-11.203v357c-6.937 58.364-56.016 101.914-114.84 101.914zM362.606 427.113l.049.046c3.469 8.343 13.078 12.281 21.422 8.812 16.5-6.891 34.688-6.938 51.188-.141s29.39 19.641 36.281 36.141c3.844 9.047 5.578 19.079 5.109 28.923-.469 9.046 6.515 16.734 15.562 17.155h.797c8.672 0 15.937-6.843 16.359-15.609.703-14.672-1.922-29.625-7.594-43.171-5.344-12.704-12.984-23.766-22.266-32.813l1.547-1.828c21.562-25.594 26.953-60.609 14.062-91.453-3.469-8.343-13.078-12.281-21.422-8.812-8.343 3.469-12.281 13.078-8.812 21.422 8.109 19.453 4.734 41.578-8.86 57.703l-3.515 4.172c-24.656-11.672-54-13.266-81.094-1.969-8.344 3.469-12.282 13.078-8.813 21.422m167.06 351.74-.094.095c3.798-8.203.235-17.953-7.968-21.75s-17.953-.235-21.75 7.968c-10.313 22.359-28.782 39.328-51.891 47.812-23.109 8.485-48.188 7.453-70.547-2.906-12.375-5.719-23.484-14.25-32.156-24.703-5.765-6.937-16.125-7.875-23.062-2.109-6.938 5.765-7.875 16.124-2.11 23.062 11.766 14.157 26.86 25.735 43.594 33.469s34.547 11.625 52.453 11.625h.563l.328 7.781c1.781 41.672 26.344 78.469 64.219 96a16.5 16.5 0 0 0 6.89 1.5c6.188 0 12.094-3.515 14.859-9.516 3.798-8.202.235-17.953-7.968-21.749-26.672-12.376-44.016-38.297-45.234-67.642l-.469-10.922c3.375-.937 6.703-1.968 9.984-3.187 31.359-11.484 56.343-34.547 70.359-64.828M353.699 638.338l8.204 5.72c15.61 10.922 26.344 27.235 30.141 45.891a16.37 16.37 0 0 0 16.031 13.125c1.078 0 2.157-.094 3.282-.329 8.906-1.781 14.625-10.452 12.797-19.311-5.484-26.908-20.953-50.439-43.453-66.189l-5.625-3.937c9.094-14.25 15.328-30.61 17.766-48.422 2.437-17.625.843-35.859-4.547-52.781-2.719-8.625-11.953-13.36-20.578-10.641s-13.407 11.953-10.641 20.578c3.89 12.329 5.062 25.594 3.281 38.391-6.516 47.859-50.766 81.516-98.625 75-8.953-1.218-17.204 5.063-18.422 14.016s5.063 17.203 14.016 18.422q8.226 1.125 16.312 1.125c30.258 0 58.505-11.466 80.061-30.658M911.27 302.53c-8.109-19.594 1.219-42.141 20.812-50.25 9.516-3.938 19.969-3.938 29.438 0 9.469 3.937 16.875 11.344 20.812 20.812 8.109 19.594-1.219 42.141-20.812 50.25s-42.141-1.219-50.25-20.812M679.147 681.418c-8.578 14.906-24.609 24.141-41.812 24.141h-21.797v-211.13h21.797c17.203 0 33.234 9.234 41.812 24.141l33.047 57.281c4.312 7.406 6.422 15.75 6.469 24.047v.187c0 8.297-2.157 16.641-6.469 24.047zm55.78 224.631a38.4 38.4 0 0 1 14.719-2.953c4.969 0 9.984.984 14.719 2.953 9.469 3.937 16.875 11.344 20.812 20.812 8.109 19.594-1.219 42.141-20.812 50.25s-42.141-1.219-50.25-20.812a39.3 39.3 0 0 1-2.953-14.531v-.328c0-4.922.984-9.844 2.953-14.578 3.937-9.469 11.344-16.876 20.812-20.813" style="fill:#fff" transform="matrix(-.03007 0 0 .03007 66.72 13.957)"/><path d="M607.43 760.221v32.766h301.351c12.141 0 21.984 9.89 21.984 22.031v59.928h32.812v-59.928c0-30.234-24.562-54.797-54.75-54.797z" style="fill:#fff" transform="matrix(.03007 0 0 -.03007 9.753 65.311)"/><path d="m680.642 925.177-.047 32.765c.891 3.656 2.016 7.266 3.516 10.828 11.344 27.422 37.922 43.97 65.906 43.97a70.8 70.8 0 0 0 27.188-5.44c36.281-15.045 53.578-56.764 38.531-93.045-7.266-17.578-20.953-31.266-38.531-38.531s-36.938-7.266-54.516 0c-17.578 7.265-31.266 20.953-38.531 38.531-1.5 3.562-2.625 7.219-3.516 10.922m54.285-19.128a38.4 38.4 0 0 1 14.719-2.953c4.969 0 9.984.984 14.719 2.953 9.469 3.937 16.875 11.344 20.812 20.812 8.109 19.594-1.219 42.141-20.812 50.25s-42.141-1.219-50.25-20.812a39.3 39.3 0 0 1-2.953-14.531v-.328c0-4.922.984-9.844 2.953-14.578 3.937-9.469 11.344-16.876 20.812-20.813" style="fill:#fff" transform="matrix(-.03007 0 0 .03007 48.72 13.629)"/><path d="m4 0 16 12.279-6.951 1.17 4.325 8.817L13.778 24l-4.35-8.879L4 19.823z" style="fill:#ff76d8;fill-rule:nonzero" transform="translate(10.271 33)scale(.4322)"/><defs><linearGradient id="a" x1="0" x2="1" y1="0" y2="0" gradientTransform="matrix(10.9801 0 0 0 28.02 32)" gradientUnits="userSpaceOnUse"><stop offset="0" style="stop-color:#ff76d8;stop-opacity:1"/><stop offset="1" style="stop-color:white;stop-opacity:1"/></linearGradient></defs></svg>