<?xml version="1.0" encoding="UTF-8" standalone="no"?>
<!DOCTYPE svg PUBLIC "-//W3C//DTD SVG 1.1//EN" "http://www.w3.org/Graphics/SVG/1.1/DTD/svg11.dtd">
<svg width="100%" height="100%" viewBox="0 0 64 64" version="1.1" xmlns="http://www.w3.org/2000/svg" xmlns:xlink="http://www.w3.org/1999/xlink" xml:space="preserve" xmlns:serif="http://www.serif.com/" style="fill-rule:evenodd;clip-rule:evenodd;stroke-linejoin:round;stroke-miterlimit:2;">
    <g transform="matrix(-0.0399999,0,0,0.0399999,56.0001,4.00024)">
        <path d="M960.002,963.638L960,922.761C967.039,918.081 973.762,913.402 980,909.062C984.398,905.96 988.578,903.06 992.5,900.361C1022.01,880.228 1042.05,848.945 1048,813.718L1053.4,781.718C1066.1,778.101 1077.37,770.64 1085.66,760.363C1093.95,750.086 1098.86,737.496 1099.72,724.32C1112.26,684.031 1119.09,642.183 1120,600C1119.97,579.109 1113.42,558.75 1101.25,541.77C1089.08,524.793 1071.91,512.04 1052.14,505.301L1071.1,473.721C1077.04,463.826 1079.26,452.145 1077.39,440.762C1075.51,429.379 1069.65,419.032 1060.86,411.567C1052.06,404.102 1040.9,400.001 1029.36,400.001L780.001,400.001C732.278,400.056 686.524,419.036 652.781,452.778C619.039,486.524 600.058,532.278 600.004,579.998C599.875,628.783 606.73,677.338 620.363,724.178C621.21,737.362 626.117,749.963 634.414,760.244C642.707,770.529 653.98,777.994 666.684,781.619L672.082,813.619C678.031,848.842 698.074,880.127 727.582,900.26C731.582,902.901 735.684,905.862 740.082,908.959C746.242,913.299 752.961,917.979 760.082,922.658L760.082,963.537C702.555,975.838 648.052,999.478 599.762,1033.08C551.621,999.603 497.322,976.014 440.002,963.678L440.002,922.78C447.061,918.081 453.803,913.382 460.002,909.018C464.381,905.94 468.541,903.018 472.4,900.397C502.154,880.467 522.295,849.073 528.002,813.717L533.4,781.717C550.724,776.912 565.228,765.045 573.365,749.014C581.502,732.983 582.522,714.272 576.174,697.452C569.83,680.632 556.701,667.257 540.002,660.6L540.002,599.998C540.154,559.482 527.947,519.881 505.018,486.478C482.084,453.072 449.514,427.455 411.651,413.037C373.784,398.619 332.424,396.088 293.081,405.779C292.761,405.9 292.403,405.918 292.102,406.039C248.747,416.769 210.225,441.689 182.664,476.834C155.105,511.982 140.086,555.334 140.004,599.994L140.004,660.596C123.359,667.291 110.285,680.666 103.977,697.463C97.669,714.26 98.7,732.936 106.817,748.936C114.938,764.936 129.403,776.791 146.684,781.616L152.083,813.616C157.762,848.96 177.864,880.358 207.583,900.315C211.583,902.936 215.583,905.874 220.024,908.956C226.203,913.315 232.946,918.014 240.024,922.718L240.024,963.577C182.723,976.475 0.004,1029.26 0.004,1180C0.004,1185.3 2.109,1190.39 5.863,1194.14C9.613,1197.89 14.699,1200 20.004,1200L1180,1200C1185.31,1200 1190.39,1197.89 1194.14,1194.14C1197.9,1190.39 1200,1185.3 1200,1180C1200,1029.26 1017.28,976.478 960.002,963.638ZM399.602,1026.18C399.165,1041.34 392.555,1055.66 381.301,1065.83C370.043,1075.99 355.125,1081.11 340,1080C324.875,1081.11 309.953,1075.99 298.695,1065.83C287.437,1055.66 280.82,1041.34 280.379,1026.18C298.707,1035.91 319.262,1040.68 340,1040C360.734,1040.68 381.281,1035.91 399.602,1026.18ZM711.52,807.08L703.739,760.682C702.954,756.018 700.54,751.78 696.926,748.725C693.313,745.67 688.731,743.998 684,744.002C675.735,743.936 668.082,739.619 663.75,732.58C659.418,725.537 659.012,716.764 662.68,709.353C666.352,701.943 673.575,696.943 681.801,696.123C686.785,695.67 691.422,693.365 694.793,689.662C698.16,685.959 700.02,681.127 700,676.123C700.008,661.037 705.344,646.439 715.066,634.904C724.788,623.369 738.273,615.642 753.14,613.08C791.992,608.619 828.913,593.732 860,570.002C891.07,593.775 927.996,608.705 966.86,613.201C981.719,615.76 995.2,623.482 1004.92,635.01C1014.64,646.537 1019.98,661.123 1020,676.201C1019.98,681.209 1021.84,686.041 1025.21,689.744C1028.58,693.447 1033.21,695.752 1038.2,696.201C1046.26,697.213 1053.26,702.237 1056.81,709.549C1060.35,716.858 1059.95,725.467 1055.75,732.42C1051.55,739.377 1044.12,743.736 1036,744.002C1031.27,743.998 1026.69,745.67 1023.07,748.725C1019.46,751.78 1017.05,756.018 1016.26,760.682L1008.48,807.08C1004.37,831.533 990.48,853.252 970,867.221C965.859,870.022 961.48,873.221 956.859,876.362C929.3,895.823 895,920.003 860,920.003C825,920.003 790.699,895.823 763.141,876.362C758.52,873.123 754.141,870.022 750,867.221C729.52,853.252 715.625,831.533 711.52,807.08ZM840,700C840,684.086 833.68,668.824 822.426,657.574C811.176,646.32 795.914,640 780,640C764.086,640 748.824,646.32 737.574,657.574C726.32,668.824 720,684.086 720,700C720,715.914 726.32,731.176 737.574,742.426C748.824,753.68 764.086,760 780,760C795.914,760 811.176,753.68 822.426,742.426C833.68,731.176 840,715.914 840,700ZM760,700C760,694.695 762.106,689.609 765.859,685.859C769.609,682.105 774.695,680 780,680C785.306,680 790.391,682.105 794.141,685.859C797.895,689.609 800.001,694.695 800.001,700C800.001,705.305 797.895,710.391 794.141,714.141C790.391,717.895 785.306,720 780,720C774.695,720 769.609,717.895 765.859,714.141C762.106,710.391 760,705.305 760,700ZM805.86,805.86C802.11,809.61 800.005,814.696 800.005,820.001C800.005,825.306 802.11,830.392 805.86,834.142C820.235,848.474 839.704,856.521 860.001,856.521C880.298,856.521 899.767,848.474 914.142,834.142C919.048,829.06 920.912,821.771 919.044,814.958C917.177,808.146 911.857,802.825 905.044,800.958C898.232,799.091 890.942,800.954 885.86,805.86C878.997,812.708 869.696,816.551 860.001,816.551C850.306,816.551 841.005,812.708 834.142,805.86C830.392,802.11 825.306,800.005 820.001,800.005C814.696,800.005 809.61,802.11 805.86,805.86ZM940,759.34C955.914,759.34 971.176,753.02 982.426,741.766C993.68,730.516 1000,715.254 1000,699.34C1000,683.426 993.68,668.164 982.426,656.914C971.176,645.66 955.914,639.34 940,639.34C924.086,639.34 908.824,645.66 897.574,656.914C886.32,668.164 880,683.426 880,699.34C880,715.254 886.32,730.516 897.574,741.766C908.824,753.02 924.086,759.34 940,759.34ZM940,679.34C945.305,679.34 950.391,681.446 954.141,685.199C957.895,688.949 960,694.035 960,699.34C960,704.645 957.895,709.731 954.141,713.481C950.391,717.235 945.305,719.341 940,719.341C934.695,719.341 929.609,717.235 925.859,713.481C922.105,709.731 920,704.646 920,699.34C920,694.036 922.105,688.949 925.859,685.199C929.609,681.446 934.695,679.34 940,679.34ZM360.001,441.38L360,460.001C360,467.145 363.813,473.747 370,477.321C376.188,480.895 383.812,480.895 390,477.321C396.188,473.747 400,467.145 400,460.001L400,451.642C418.496,459.192 435.402,470.173 449.82,484.001L400.941,549.282C395.843,556.043 387.867,560.012 379.398,560.001L360,560.001L360,540.001C360,532.856 356.188,526.255 350,522.681C343.813,519.106 336.188,519.106 330,522.681C323.813,526.255 320,532.857 320,540.001L320,560.001L300.602,560.001C292.106,560.008 284.106,556.005 279.02,549.2L230.161,484.001C244.626,470.255 261.528,459.329 280.001,451.782L280.001,460C280.001,467.145 283.814,473.746 290.001,477.32C296.189,480.895 303.813,480.895 310.001,477.32C316.188,473.746 320.001,467.144 320.001,460L320.001,441.379C333.271,439.54 346.731,439.54 360.001,441.38ZM561.542,1160C577.542,1058.12 713.702,1016 764.382,1003.8C773.843,1030.28 800.382,1060 860.003,1060C919.624,1060 946.163,1030.28 955.624,1003.8C1006.3,1016.02 1142.48,1058.14 1158.46,1160L561.542,1160ZM780,440L1029.36,440C1032.49,439.992 1035.37,441.672 1036.91,444.387C1038.45,447.106 1038.41,450.441 1036.8,453.121L1002.8,509.699C1000.36,513.769 999.438,518.578 1000.21,523.261C1000.99,527.949 1003.4,532.203 1007.03,535.269C1010.65,538.336 1015.25,540.011 1020,540C1035.91,540 1051.18,546.32 1062.43,557.574C1073.68,568.824 1080,584.086 1080,600C1079.71,622.723 1077.26,645.367 1072.66,667.621C1068.33,664.543 1063.63,662.031 1058.66,660.14C1055.32,638.644 1045.31,618.742 1030.05,603.242C1014.79,587.742 995.044,577.43 973.603,573.762C924.603,565.243 890.14,549.319 876.542,528.901C872.62,523.659 866.45,520.567 859.899,520.567C853.352,520.567 847.184,523.657 843.262,528.899C829.66,549.321 795.26,565.241 746.201,573.76C724.76,577.428 705.011,587.742 689.75,603.242C674.489,618.742 664.48,638.644 661.141,660.14C656.438,661.953 651.97,664.332 647.84,667.218C642.649,638.437 640.024,609.249 640.001,579.999C640.047,542.882 654.813,507.3 681.06,481.058C707.302,454.812 742.883,440.047 780,440ZM191.52,807.081L183.739,760.682C182.954,756.018 180.54,751.78 176.926,748.725C173.313,745.67 168.731,743.998 164,744.002C155.735,743.936 148.082,739.619 143.75,732.58C139.418,725.537 139.012,716.764 142.68,709.353C146.352,701.943 153.575,696.943 161.801,696.123C166.785,695.67 171.422,693.365 174.793,689.662C178.16,685.959 180.02,681.127 180,676.123L180,600.002C180.02,570.295 188.375,541.193 204.121,516.002L246.961,573.182C259.629,590.061 279.496,599.994 300.602,600.002L379.401,600.002C400.491,599.987 420.344,590.049 433.001,573.182L476.001,515.862C491.743,541.1 500.063,570.257 500.001,600.003L500.001,676.202C499.982,681.21 501.841,686.042 505.208,689.745C508.579,693.448 513.216,695.753 518.2,696.202C526.263,697.214 533.262,702.238 536.809,709.55C540.352,716.859 539.954,725.468 535.754,732.421C531.555,739.378 524.121,743.737 516,744.003C511.27,743.999 506.688,745.671 503.074,748.726C499.461,751.781 497.047,756.019 496.262,760.683L488.481,807.105C484.555,831.621 470.618,853.406 450.001,867.242C445.899,870.043 441.54,873.101 436.981,876.344C409.36,895.805 375.02,920.004 340.001,920.004C304.982,920.004 270.642,895.805 243.06,876.344C238.501,873.105 234.138,870.043 230.001,867.223C209.384,853.387 195.445,831.601 191.52,807.081ZM320,700C320,684.086 313.68,668.824 302.426,657.574C291.176,646.32 275.914,640 260,640C244.086,640 228.824,646.32 217.574,657.574C206.32,668.824 200,684.086 200,700C200,715.914 206.32,731.176 217.574,742.426C228.824,753.68 244.086,760 260,760C275.914,760 291.176,753.68 302.426,742.426C313.68,731.176 320,715.914 320,700ZM240,700C240,694.695 242.106,689.609 245.859,685.859C249.609,682.105 254.695,680 260,680C265.306,680 270.391,682.105 274.141,685.859C277.895,689.609 280.001,694.695 280.001,700C280.001,705.305 277.895,710.391 274.141,714.141C270.391,717.895 265.306,720 260,720C254.695,720 249.609,717.895 245.859,714.141C242.106,710.391 240,705.305 240,700ZM420,759.34C435.914,759.34 451.176,753.02 462.426,741.766C473.68,730.516 480,715.254 480,699.34C480,683.426 473.68,668.164 462.426,656.914C451.176,645.66 435.914,639.34 420,639.34C404.086,639.34 388.824,645.66 377.574,656.914C366.32,668.164 360,683.426 360,699.34C360,715.254 366.32,730.516 377.574,741.766C388.824,753.02 404.086,759.34 420,759.34ZM420,679.34C425.305,679.34 430.391,681.446 434.141,685.199C437.895,688.949 440,694.035 440,699.34C440,704.645 437.895,709.731 434.141,713.481C430.391,717.235 425.305,719.341 420,719.341C414.695,719.341 409.609,717.235 405.859,713.481C402.105,709.731 400,704.646 400,699.34C400,694.036 402.105,688.949 405.859,685.199C409.609,681.446 414.695,679.34 420,679.34ZM287.109,805.856C283.359,809.606 281.254,814.692 281.254,819.997C281.254,825.302 283.359,830.388 287.109,834.138C301.484,848.47 320.953,856.517 341.25,856.517C361.547,856.517 381.016,848.47 395.391,834.138C400.298,829.056 402.161,821.767 400.294,814.954C398.426,808.141 393.106,802.821 386.294,800.954C379.481,799.086 372.192,800.95 367.11,805.856C360.246,812.704 350.946,816.547 341.251,816.547C331.556,816.547 322.255,812.703 315.392,805.856C311.642,802.106 306.556,800 301.251,800C295.946,800 290.859,802.106 287.109,805.856ZM240.001,1004.88L240.002,1020C238.986,1046.82 249.197,1072.85 268.174,1091.83C287.151,1110.8 313.182,1121.02 340.002,1120C366.822,1121.02 392.854,1110.81 411.83,1091.83C430.806,1072.85 441.018,1046.82 440.002,1020L440.002,1004.86C485.877,1015.79 529.51,1034.59 568.962,1060.42C542.47,1087.42 525.689,1122.44 521.239,1160L41.539,1160C57.078,1060.92 186.301,1018.38 240.001,1004.88ZM340,960C360.816,959.543 381.285,954.582 400,945.461L400,960C400,961.641 399.32,1000 340,1000C284,1000 280.199,966.441 280,959.719L280,945.459C298.715,954.58 319.184,959.543 340,960ZM860,960C880.816,959.543 901.285,954.582 920,945.461L920,980C920,981.641 919.32,1020 860,1020C804,1020 800.199,986.441 800,980L800,945.461C818.715,954.582 839.184,959.543 860,960Z" style="fill:rgb(46,41,78);"/>
    </g>
    <g transform="matrix(0.0374987,0,0,0.0374987,9.50024,7.25027)">
        <path d="M852.528,254.14L812.527,214.14C807.621,209.058 805.757,201.769 807.625,194.956C809.492,188.144 814.812,182.823 821.625,180.956C828.438,179.089 835.727,180.952 840.809,185.858L863.586,208.616L930.047,108.897C934.012,102.956 940.848,99.577 947.981,100.038C955.114,100.499 961.458,104.734 964.622,111.14C967.786,117.546 967.293,125.156 963.329,131.101L883.329,251.101C880.005,256.078 874.626,259.308 868.669,259.898C867.969,259.999 867.309,259.999 866.669,259.999C861.363,259.999 856.278,257.89 852.528,254.14ZM305.621,254.142L265.62,214.142C260.714,209.06 258.851,201.771 260.718,194.958C262.585,188.146 267.905,182.825 274.718,180.958C281.531,179.091 288.82,180.954 293.902,185.861L316.679,208.619L383.14,108.9C387.105,102.958 393.941,99.579 401.074,100.04C408.207,100.501 414.551,104.736 417.715,111.142C420.879,117.548 420.387,125.158 416.422,131.103L336.422,251.103C333.098,256.08 327.719,259.31 321.762,259.9C321.063,260.002 320.402,260.002 319.762,260.002C314.457,260.002 309.371,257.892 305.621,254.142Z" style="fill:rgb(220,68,181);"/>
    </g>
</svg>
