<svg xmlns="http://www.w3.org/2000/svg" width="100%" height="100%" viewBox="0 0 32 32" version="1.1">
  <style>.a { fill: black; }.c1 { fill: #154706; }.c2 { fill: #3c6d0e; }.c3 { fill: #8abf14; }.c4 { fill: #c6dd0e }@media (prefers-color-scheme: dark) {.a { fill: white }.c1 { fill: #f2ff20; }.c2 { fill: #c6dd0e }.c3 { fill: #8abf14; }.c4 { fill: #3c6d0e; }}</style>
  <path class="a" d="M23.416,27.416C21.016,29.047 18.119,30 15,30C6.72,30 0,23.28 0,15C0,6.72 6.72,0 15,0C23.28,0 30,6.72 30,15C30,18.119 29.047,21.016 27.416,23.416L32,28L28,32L23.416,27.416ZM15,3C8.377,3 3,8.377 3,15C3,21.623 8.377,27 15,27C21.623,27 27,21.623 27,15C27,8.377 21.623,3 15,3Z"/>
  <path class="c4" d="M18,4.415C19.485,4.835 20.842,5.56 22,6.517L22,7L18,7L18,4.415Z"/>
  <path class="c3" d="M13,4.182C13.65,4.062 14.317,4 15,4C15.683,4 16.35,4.062 17,4.182L17,7L13,7L13,4.182Z"/>
  <path class="c2" d="M12,4.415L12,7L8,7L8,6.517C9.158,5.56 10.516,4.835 12,4.415Z"/>
  <path class="c4" d="M23.483,8C24.44,9.158 25.165,10.516 25.585,12L23,12L23,8L23.483,8Z"/>
  <rect class="c3" x="18" y="8" width="4" height="4"/>
  <rect class="c2" x="13" y="8" width="4" height="4"/>
  <rect class="c1" x="8" y="8" width="4" height="4"/>
  <path class="c2" d="M7,12L4.415,12C4.835,10.515 5.56,9.158 6.517,8L7,8L7,12Z"/>
  <path class="c3" d="M25.818,13C25.938,13.65 26,14.317 26,15C26,15.683 25.938,16.35 25.818,17L23,17L23,13L25.818,13Z"/>
  <rect class="c2" x="18" y="13" width="4" height="4"/>
  <rect class="c1" x="13" y="13" width="4" height="4"/>
  <rect class="c2" x="8" y="13" width="4" height="4"/>
  <path class="c3" d="M7,17L4.182,17C4.062,16.35 4,15.683 4,15C4,14.317 4.062,13.65 4.182,13L7,13L7,17Z"/>
  <path class="c2" d="M25.585,18C25.165,19.485 24.44,20.842 23.483,22L23,22L23,18L25.585,18Z"/>
  <rect class="c1" x="18" y="18" width="4" height="4"/>
  <rect class="c2" x="13" y="18" width="4" height="4"/>
  <rect class="c3" x="8" y="18" width="4" height="4"/>
  <path class="c4" d="M7,22L6.517,22C5.56,20.842 4.835,19.484 4.415,18L7,18L7,22Z"/>
  <path class="c2" d="M18,25.585L18,23L22,23L22,23.483C20.842,24.44 19.484,25.165 18,25.585Z"/>
  <path class="c3" d="M13,25.818L13,23L17,23L17,25.818C16.35,25.938 15.683,26 15,26C14.317,26 13.65,25.938 13,25.818Z"/>
  <path class="c4" d="M8,23.483L8,23L12,23L12,25.585C10.515,25.165 9.158,24.44 8,23.483Z"/>
</svg>
