<svg xmlns="http://www.w3.org/2000/svg" version="1.1" width="100%" height="100%" viewBox="0 0 24 24">
  <style>#m { fill: #009511; }#b { fill: #007300; }@media (prefers-color-scheme: dark) {#m { fill: #d1ef39; }#b { fill: #a2bd00; }}</style>
  <path id="b" d="m24,17.974l0,2c0,2.222 -1.804,4.026 -4.026,4.026l-15.948,0c-2.222,0 -4.026,-1.804 -4.026,-4.026l0,-2c0,2.222 1.804,4.026 4.026,4.026l15.948,0c2.222,0 4.026,-1.804 4.026,-4.026z"/>
  <path id="m" d="m24,4.026l0,13.948c0,2.222 -1.804,4.026 -4.026,4.026l-15.948,0c-2.222,0 -4.026,-1.804 -4.026,-4.026l0,-13.948c0,-2.222 1.804,-4.026 4.026,-4.026l15.948,0c2.222,0 4.026,1.804 4.026,4.026zm-20.384,8.608l6,6c0.265,0.265 0.635,0.397 1.007,0.36c0.373,-0.037 0.709,-0.239 0.917,-0.551l9,-13.5c0.383,-0.574 0.227,-1.35 -0.347,-1.733c-0.574,-0.383 -1.35,-0.227 -1.733,0.347l-8.154,12.231l-4.922,-4.922c-0.488,-0.488 -1.28,-0.488 -1.768,0c-0.488,0.488 -0.488,1.28 0,1.768z"/>
</svg>
